# xmcd CD database file generated by Grip 2.95
# 
# Track frame offsets:
#       150
#       19165
#       39265
#       52255
#       82372
#       93887
#       111367
#       128737
#       143197
#       163927
#       173957
#       190820
#       209672
#       216107
#       235587
#       249875
#       268885
#       288047
# 
# Disc length: 4426 seconds
# 
# Revision: 3
# Processed by: cddbd v1.4b41PL2 Copyright (c) Steve Scherf et al.
# Submitted via: Grip 2.95
# 
DISCID=0b114812
DTITLE=Jimi Hendrix - Love Or Confusion
DYEAR=1900
DGENRE=
TTITLE0=Come On
TTITLE1=Still Raining, Still Dreaming
TTITLE2=Little Miss Strange
TTITLE3=3rd Stone from the Sun (2)
TTITLE4=Can You see me
TTITLE5=Night Bird Flying
TTITLE6=I don't live today
TTITLE7=Love or Confusion
TTITLE8=House Burning Down
TTITLE9=Have you ever Been
TTITLE10=Red House
TTITLE11=Are you Experienced
TTITLE12=And the Gods made Love
TTITLE13=The Stars that play with Laughing Sam's Dice
TTITLE14=May this Be Love
TTITLE15=Angel
TTITLE16=Free Spirit
TTITLE17=Voice in the Wind
EXTD=
EXTT0=
EXTT1=
EXTT2=
EXTT3=
EXTT4=
EXTT5=
EXTT6=
EXTT7=
EXTT8=
EXTT9=
EXTT10=
EXTT11=
EXTT12=
EXTT13=
EXTT14=
EXTT15=
EXTT16=
EXTT17=
PLAYORDER=
